<svg width="201" height="126" viewBox="0 0 201 126" fill="none" xmlns="http://www.w3.org/2000/svg">
<g filter="url(#filter0_d_19_4)">
<path d="M196 59C196 74.8124 185.513 89.2896 168.214 99.8661C150.932 110.432 126.994 117 100.5 117C74.0057 117 50.0676 110.432 32.7858 99.8661C15.487 89.2896 5 74.8124 5 59C5 43.1876 15.487 28.7104 32.7858 18.1339C50.0676 7.56781 74.0057 1 100.5 1C126.994 1 150.932 7.56781 168.214 18.1339C185.513 28.7104 196 43.1876 196 59Z" fill="#E0218A" stroke="white" stroke-width="2"/>
<path d="M69.664 42.28C69.664 45 68.704 47.352 66.784 49.336C64.864 51.288 62.064 52.696 58.384 53.56C60.368 54.104 61.872 55 62.896 56.248C63.92 57.464 64.432 58.872 64.432 60.472C64.432 63 63.632 65.192 62.032 67.048C60.464 68.904 58.16 70.344 55.12 71.368C52.08 72.36 48.416 72.856 44.128 72.856C42.528 72.856 41.248 72.808 40.288 72.712C40.256 73.608 39.872 74.28 39.136 74.728C38.4 75.176 37.456 75.4 36.304 75.4C35.152 75.4 34.352 75.144 33.904 74.632C33.488 74.12 33.312 73.368 33.376 72.376C33.664 67.896 34.224 63.208 35.056 58.312C35.888 53.384 36.944 48.632 38.224 44.056C38.448 43.256 38.896 42.696 39.568 42.376C40.24 42.056 41.12 41.896 42.208 41.896C44.16 41.896 45.136 42.44 45.136 43.528C45.136 43.976 45.04 44.488 44.848 45.064C44.016 47.56 43.184 50.952 42.352 55.24C41.52 59.496 40.928 63.56 40.576 67.432C42.112 67.56 43.36 67.624 44.32 67.624C48.8 67.624 52.08 66.984 54.16 65.704C56.272 64.392 57.328 62.728 57.328 60.712C57.328 59.304 56.72 58.12 55.504 57.16C54.32 56.2 52.32 55.672 49.504 55.576C48.864 55.544 48.416 55.384 48.16 55.096C47.904 54.808 47.776 54.344 47.776 53.704C47.776 52.776 47.968 52.024 48.352 51.448C48.736 50.872 49.44 50.568 50.464 50.536C52.736 50.472 54.784 50.136 56.608 49.528C58.464 48.92 59.92 48.072 60.976 46.984C62.032 45.864 62.56 44.568 62.56 43.096C62.56 41.24 61.648 39.784 59.824 38.728C58 37.64 55.2 37.096 51.424 37.096C48 37.096 44.688 37.544 41.488 38.44C38.288 39.304 35.568 40.408 33.328 41.752C32.304 42.36 31.44 42.664 30.736 42.664C30.16 42.664 29.712 42.472 29.392 42.088C29.104 41.672 28.96 41.16 28.96 40.552C28.96 39.752 29.12 39.064 29.44 38.488C29.792 37.912 30.608 37.256 31.888 36.52C34.576 34.984 37.728 33.784 41.344 32.92C44.96 32.056 48.656 31.624 52.432 31.624C58.224 31.624 62.544 32.6 65.392 34.552C68.24 36.504 69.664 39.08 69.664 42.28ZM73.9893 73.24C72.0053 73.24 70.4213 72.52 69.2373 71.08C68.0533 69.64 67.4613 67.752 67.4613 65.416C67.4613 62.856 68.0533 60.44 69.2373 58.168C70.4213 55.864 71.9893 54.024 73.9413 52.648C75.9253 51.24 78.0213 50.536 80.2293 50.536C80.9333 50.536 81.3973 50.68 81.6213 50.968C81.8773 51.224 82.0853 51.704 82.2453 52.408C82.9173 52.28 83.6213 52.216 84.3573 52.216C85.9253 52.216 86.7093 52.776 86.7093 53.896C86.7093 54.568 86.4693 56.168 85.9893 58.696C85.2533 62.376 84.8853 64.936 84.8853 66.376C84.8853 66.856 84.9973 67.24 85.2213 67.528C85.4773 67.816 85.7973 67.96 86.1813 67.96C86.7893 67.96 87.5253 67.576 88.3893 66.808C89.2533 66.008 90.4213 64.728 91.8933 62.968C92.2773 62.52 92.7093 62.296 93.1893 62.296C93.6053 62.296 93.9253 62.488 94.1493 62.872C94.4053 63.256 94.5333 63.784 94.5333 64.456C94.5333 65.736 94.2293 66.728 93.6213 67.432C92.3093 69.064 90.9173 70.44 89.4453 71.56C87.9733 72.68 86.5493 73.24 85.1733 73.24C84.1173 73.24 83.1413 72.888 82.2453 72.184C81.3813 71.448 80.7253 70.456 80.2773 69.208C78.6133 71.896 76.5173 73.24 73.9893 73.24ZM75.7173 68.392C76.4213 68.392 77.0933 67.976 77.7333 67.144C78.3733 66.312 78.8373 65.208 79.1253 63.832L80.9013 55C79.5573 55.032 78.3093 55.544 77.1573 56.536C76.0373 57.496 75.1413 58.776 74.4693 60.376C73.7973 61.976 73.4613 63.672 73.4613 65.464C73.4613 66.456 73.6533 67.192 74.0373 67.672C74.4533 68.152 75.0133 68.392 75.7173 68.392ZM94.0401 73.24C92.8241 73.24 91.9601 72.6 91.4481 71.32C90.9681 70.04 90.7281 67.992 90.7281 65.176C90.7281 61.016 91.3201 57.064 92.5041 53.32C92.7921 52.392 93.2561 51.72 93.8961 51.304C94.5681 50.856 95.4961 50.632 96.6801 50.632C97.3201 50.632 97.7681 50.712 98.0241 50.872C98.2801 51.032 98.4081 51.336 98.4081 51.784C98.4081 52.296 98.1681 53.448 97.6881 55.24C97.3681 56.52 97.1121 57.64 96.9201 58.6C96.7281 59.56 96.5681 60.744 96.4401 62.152C97.4961 59.4 98.6801 57.16 99.9921 55.432C101.304 53.704 102.584 52.472 103.832 51.736C105.112 51 106.28 50.632 107.336 50.632C109.416 50.632 110.456 51.672 110.456 53.752C110.456 54.168 110.312 55.176 110.024 56.776C109.768 58.056 109.64 58.856 109.64 59.176C109.64 60.296 110.04 60.856 110.84 60.856C111.736 60.856 112.888 60.152 114.296 58.744C114.712 58.328 115.144 58.12 115.592 58.12C116.008 58.12 116.328 58.312 116.552 58.696C116.808 59.048 116.936 59.528 116.936 60.136C116.936 61.32 116.616 62.248 115.976 62.92C115.08 63.848 114.024 64.648 112.808 65.32C111.624 65.96 110.36 66.28 109.016 66.28C107.32 66.28 106.024 65.848 105.128 64.984C104.264 64.12 103.832 62.952 103.832 61.48C103.832 61 103.88 60.52 103.976 60.04C104.04 59.4 104.072 58.968 104.072 58.744C104.072 58.232 103.896 57.976 103.544 57.976C103.064 57.976 102.424 58.52 101.624 59.608C100.856 60.664 100.088 62.072 99.3201 63.832C98.5521 65.592 97.9281 67.448 97.4481 69.4C97.0961 70.904 96.6801 71.928 96.2001 72.472C95.7521 72.984 95.0321 73.24 94.0401 73.24ZM138.012 58.264C138.428 58.264 138.748 58.472 138.972 58.888C139.196 59.304 139.308 59.832 139.308 60.472C139.308 61.272 139.196 61.896 138.972 62.344C138.748 62.76 138.396 63.048 137.916 63.208C135.996 63.88 133.884 64.264 131.58 64.36C130.94 67.016 129.724 69.16 127.932 70.792C126.172 72.424 124.22 73.24 122.076 73.24C118.844 73.24 116.492 72.008 115.02 69.544C113.548 67.08 112.812 63.512 112.812 58.84C112.812 54.712 113.324 50.232 114.348 45.4C115.372 40.536 116.86 36.408 118.812 33.016C120.796 29.592 123.148 27.88 125.868 27.88C127.34 27.88 128.524 28.52 129.42 29.8C130.316 31.048 130.764 32.68 130.764 34.696C130.764 37.32 130.268 39.928 129.276 42.52C128.284 45.112 126.636 47.832 124.332 50.68C126.476 50.84 128.22 51.736 129.564 53.368C130.908 54.968 131.708 56.952 131.964 59.32C133.468 59.224 135.26 58.904 137.34 58.36C137.532 58.296 137.756 58.264 138.012 58.264ZM124.764 32.632C124.124 32.632 123.42 33.592 122.652 35.512C121.916 37.4 121.228 39.976 120.588 43.24C119.948 46.504 119.468 50.072 119.148 53.944C121.26 50.072 122.94 46.664 124.188 43.72C125.468 40.744 126.108 38.104 126.108 35.8C126.108 34.776 125.98 33.992 125.724 33.448C125.5 32.904 125.18 32.632 124.764 32.632ZM122.268 68.152C123.26 68.152 124.14 67.736 124.908 66.904C125.676 66.072 126.188 64.872 126.444 63.304C125.452 62.632 124.684 61.752 124.14 60.664C123.628 59.576 123.372 58.424 123.372 57.208C123.372 56.76 123.436 56.152 123.564 55.384H123.42C122.108 55.384 121.004 56.04 120.108 57.352C119.244 58.632 118.812 60.36 118.812 62.536C118.812 64.36 119.148 65.752 119.82 66.712C120.524 67.672 121.34 68.152 122.268 68.152ZM141.451 47.464C140.107 47.464 139.099 47.16 138.427 46.552C137.755 45.912 137.419 45.032 137.419 43.912C137.419 42.792 137.851 41.864 138.715 41.128C139.611 40.36 140.715 39.976 142.027 39.976C143.211 39.976 144.171 40.264 144.907 40.84C145.643 41.416 146.011 42.232 146.011 43.288C146.011 44.568 145.595 45.592 144.763 46.36C143.931 47.096 142.827 47.464 141.451 47.464ZM141.067 73.24C138.987 73.24 137.467 72.504 136.507 71.032C135.579 69.56 135.115 67.608 135.115 65.176C135.115 63.736 135.291 61.896 135.643 59.656C136.027 57.384 136.507 55.272 137.083 53.32C137.371 52.296 137.755 51.592 138.235 51.208C138.715 50.824 139.483 50.632 140.539 50.632C142.171 50.632 142.987 51.176 142.987 52.264C142.987 53.064 142.683 54.92 142.075 57.832C141.307 61.352 140.923 63.736 140.923 64.984C140.923 65.944 141.051 66.68 141.307 67.192C141.563 67.704 141.995 67.96 142.603 67.96C143.179 67.96 143.899 67.56 144.763 66.76C145.627 65.96 146.779 64.696 148.219 62.968C148.603 62.52 149.035 62.296 149.515 62.296C149.931 62.296 150.251 62.488 150.475 62.872C150.731 63.256 150.859 63.784 150.859 64.456C150.859 65.736 150.555 66.728 149.947 67.432C146.779 71.304 143.819 73.24 141.067 73.24ZM164.16 63.736C164.576 63.736 164.896 63.928 165.12 64.312C165.376 64.696 165.504 65.224 165.504 65.896C165.504 67.048 165.232 68.04 164.688 68.872C163.792 70.248 162.608 71.32 161.136 72.088C159.696 72.856 157.968 73.24 155.952 73.24C152.88 73.24 150.496 72.328 148.8 70.504C147.104 68.648 146.256 66.152 146.256 63.016C146.256 60.808 146.72 58.76 147.648 56.872C148.576 54.952 149.856 53.432 151.488 52.312C153.152 51.192 155.024 50.632 157.104 50.632C158.96 50.632 160.448 51.192 161.568 52.312C162.688 53.4 163.248 54.888 163.248 56.776C163.248 58.984 162.448 60.888 160.848 62.488C159.28 64.056 156.592 65.304 152.784 66.232C153.552 67.704 154.848 68.44 156.672 68.44C157.984 68.44 159.056 68.136 159.888 67.528C160.752 66.92 161.744 65.896 162.864 64.456C163.248 63.976 163.68 63.736 164.16 63.736ZM156.288 55.336C155.104 55.336 154.096 56.024 153.264 57.4C152.464 58.776 152.064 60.44 152.064 62.392V62.488C153.952 62.04 155.44 61.368 156.528 60.472C157.616 59.576 158.16 58.536 158.16 57.352C158.16 56.744 157.984 56.264 157.632 55.912C157.312 55.528 156.864 55.336 156.288 55.336Z" fill="white"/>
</g>
<defs>
<filter id="filter0_d_19_4" x="0" y="0" width="201" height="126" filterUnits="userSpaceOnUse" color-interpolation-filters="sRGB">
<feFlood flood-opacity="0" result="BackgroundImageFix"/>
<feColorMatrix in="SourceAlpha" type="matrix" values="0 0 0 0 0 0 0 0 0 0 0 0 0 0 0 0 0 0 127 0" result="hardAlpha"/>
<feOffset dy="4"/>
<feGaussianBlur stdDeviation="2"/>
<feComposite in2="hardAlpha" operator="out"/>
<feColorMatrix type="matrix" values="0 0 0 0 0 0 0 0 0 0 0 0 0 0 0 0 0 0 0.25 0"/>
<feBlend mode="normal" in2="BackgroundImageFix" result="effect1_dropShadow_19_4"/>
<feBlend mode="normal" in="SourceGraphic" in2="effect1_dropShadow_19_4" result="shape"/>
</filter>
</defs>
</svg>
